<!-- <svg xmlns="http://www.w3.org/2000/svg" viewBox="0 0 24 24" width="24" height="24" color="#000000" fill="none" style="background-color: #1cd760; border-radius: 50%; padding: 5px;">
    <path d="M18.8906 12.846C18.5371 14.189 16.8667 15.138 13.5257 17.0361C10.296 18.8709 8.6812 19.7884 7.37983 19.4196C6.8418 19.2671 6.35159 18.9776 5.95624 18.5787C5 17.6139 5 15.7426 5 12C5 8.2574 5 6.3861 5.95624 5.42132C6.35159 5.02245 6.8418 4.73288 7.37983 4.58042C8.6812 4.21165 10.296 5.12907 13.5257 6.96393C16.8667 8.86197 18.5371 9.811 18.8906 11.154C19.0365 11.7084 19.0365 12.2916 18.8906 12.846Z" fill="black" stroke="#1cd760" stroke-width="1.5" stroke-linejoin="round" />
</svg> -->


<!-- <svg xmlns="http://www.w3.org/2000/svg" viewBox="0 0 24 24" width="24" height="24" fill="none">
  Circular border
  <circle cx="12" cy="12" r="11" stroke="#1cd760" stroke-width="2" fill="none"/>
  
  Centered triangle
  <path d="M8 6 L16 12 L8 18 Z" fill="black"/>
</svg> -->

<svg xmlns="http://www.w3.org/2000/svg" data-encore-id="icon" role="img" aria-hidden="true" viewBox="0 0 24 24" class="Svg-sc-ytk21e-0 bneLcE"><path d="m7.05 3.606 13.49 7.788a.7.7 0 0 1 0 1.212L7.05 20.394A.7.7 0 0 1 6 19.788V4.212a.7.7 0 0 1 1.05-.606z"></path></svg>